<svg width="24" height="24" viewBox="0 0 24 24" xmlns="http://www.w3.org/2000/svg"><path fill-rule="evenodd" clip-rule="evenodd" d="M12.034.002C18.634.022 24 5.395 24 12c0 6.605-5.365 11.98-11.966 11.998l-.01.002h-.003l-.003-.001h-.007L12 24C5.383 24 0 18.617 0 12 0 5.384 5.383 0 12 0h.01a.244.244 0 00.017.002h.007zM8.494 10.8c.368-3.926 2.377-6.66 3.537-7.924 1.2 1.286 3.178 3.994 3.52 7.924H8.495zm-2.416 0a15.773 15.773 0 012.848-7.885C5.503 4.076 2.946 7.114 2.483 10.8h3.595zm-3.595 2.4h3.59a15.482 15.482 0 002.815 7.873c-3.404-1.172-5.943-4.2-6.405-7.873zm12.657 7.862a15.748 15.748 0 002.83-7.862h3.546c-.46 3.662-2.987 6.684-6.376 7.862zm.414-7.862H8.496a13.222 13.222 0 003.518 7.93c1.16-1.264 3.173-3.998 3.54-7.93zm5.962-2.4h-3.542a15.471 15.471 0 00-2.794-7.847c3.37 1.188 5.879 4.199 6.336 7.847z"></path></svg>