<svg xmlns="http://www.w3.org/2000/svg" viewBox="0 0 24 24"><path d="M12.228 23.999l.114.001a12.31 12.31 0 008.762-3.624 12.269 12.269 0 002.803-4.315 1.2 1.2 0 00-1.531-1.557c-3.678 1.339-7.836.426-10.593-2.326a10.078 10.078 0 01-2.33-10.564A1.2 1.2 0 007.899.08a12.271 12.271 0 00-4.792 3.292c-4.24 4.722-4.103 12.278.31 16.843A12.311 12.311 0 0012.227 24zM4.892 4.975a9.882 9.882 0 011.65-1.474c-.475 3.772.797 7.633 3.544 10.376 2.75 2.743 6.62 4.008 10.394 3.538-.32.448-.678.87-1.071 1.262A9.932 9.932 0 0112.34 21.6l-.092-.001a9.928 9.928 0 01-7.109-3.053C1.585 14.868 1.473 8.78 4.892 4.975z"/></svg>