<svg xmlns="http://www.w3.org/2000/svg" viewBox="0 0 24 24"><path d="M10.8 1.2v2.4a1.2 1.2 0 102.4 0V1.2a1.2 1.2 0 10-2.4 0zM18.876 7.028a1.195 1.195 0 01-1.697-.03 1.2 1.2 0 01.029-1.696l1.727-1.668a1.202 1.202 0 011.668 1.728l-1.727 1.666zM12 16.8c2.647 0 4.8-2.153 4.8-4.8S14.647 7.2 12 7.2A4.805 4.805 0 007.2 12c0 2.647 2.153 4.8 4.8 4.8zM5.124 16.972l-1.727 1.666a1.2 1.2 0 001.668 1.728l1.727-1.668a1.2 1.2 0 00-1.668-1.726zM17.18 17.002c.46-.477 1.22-.49 1.696-.03l1.727 1.666a1.2 1.2 0 01-1.668 1.728l-1.727-1.668a1.2 1.2 0 01-.029-1.696zM12 19.2a1.2 1.2 0 00-1.2 1.2v2.4a1.2 1.2 0 102.4 0v-2.4a1.2 1.2 0 00-1.2-1.2zM5.065 3.634a1.2 1.2 0 00-1.668 1.728l1.727 1.666a1.195 1.195 0 001.697-.03 1.2 1.2 0 00-.029-1.696L5.065 3.634zM3.6 10.8a1.2 1.2 0 110 2.4H1.2a1.2 1.2 0 110-2.4h2.4zM22.8 10.8h-2.4a1.2 1.2 0 100 2.4h2.4a1.2 1.2 0 100-2.4z"/></svg>